<?xml version="1.0" encoding="UTF-8" standalone="no" ?>
<!DOCTYPE svg PUBLIC "-//W3C//DTD SVG 1.1//EN" "http://www.w3.org/Graphics/SVG/1.1/DTD/svg11.dtd">
<svg xmlns="http://www.w3.org/2000/svg" xmlns:xlink="http://www.w3.org/1999/xlink" version="1.1" width="500" height="500" viewBox="0 0 500 500" xml:space="preserve">
<desc>Created with Fabric.js 5.2.4</desc>
<defs>
</defs>
<rect x="0" y="0" width="100%" height="100%" fill="transparent"></rect>
<g transform="matrix(1 0 0 1 250 250)" id="007962d7-ea5f-448e-99cb-325fd5a0ab40"  >
<rect style="stroke: none; stroke-width: 1; stroke-dasharray: none; stroke-linecap: butt; stroke-dashoffset: 0; stroke-linejoin: miter; stroke-miterlimit: 4; fill: rgb(255,255,255); fill-rule: nonzero; opacity: 1; visibility: hidden;" vector-effect="non-scaling-stroke"  x="-250" y="-250" rx="0" ry="0" width="500" height="500" />
</g>
<g transform="matrix(Infinity NaN NaN Infinity 0 0)" id="00515500-a9ed-423f-ad30-3cc2965a8f74"  >
</g>
<g transform="matrix(0.46 0 0 0.46 484.93 500)"  >
<path style="stroke: none; stroke-width: 1; stroke-dasharray: none; stroke-linecap: butt; stroke-dashoffset: 0; stroke-linejoin: miter; stroke-miterlimit: 4; fill: rgb(69,69,69); fill-rule: nonzero; opacity: 1;" vector-effect="non-scaling-stroke"  transform=" translate(-72.9, -50.48)" d="M 69.7754 60.241 C 72.6746 61.2076 75.4386 60.3416 76.6797 59.9518 C 94.7754 68.8011 97.9337 77.9242 96.2371 87.8778 C 94.5406 97.8313 86.1318 92.0967 86.1318 92.0967 C 88.3934 96.8493 95.6322 102.83 100.649 98.4468 C 106.223 93.5737 106.53 76.3576 90.3575 62.8392 L 90.1939 62.7047 L 85.9823 52.0335 C 105.538 63.1284 106.193 75.3863 106.193 75.3863 C 107.581 69.545 108.126 64.4059 106.537 59.624 C 106.373 59.1211 106.179 58.6304 105.957 58.1547 C 101.582 48.8909 80.2679 39.4756 76.9388 38.028 C 51.7466 27.0692 48.6723 22.1682 47.9251 18.1766 C 47.1081 13.8123 48.9954 10.1052 49.2345 9.65205 C 53.2069 2.10647 63.503 2.49465 64.1136 2.52712 C 53.1286 -1.34697 42.8482 2.46371 39.6017 9.66596 C 37.3842 14.5824 38.1884 21.0748 40.497 25.4098 C 42.4483 29.0751 44.1975 30.866 47.3729 33.1626 C 54.7668 38.4997 59.3114 39.6813 73.2169 46.3933 C 75.6166 47.5516 77.5479 48.5291 78.7236 49.1307 C 79.4096 51.3865 80.0961 53.6419 80.7831 55.8968 C 79.5662 55.1947 78.2482 54.5049 76.8263 53.8368 C 76.1043 53.4997 75.3969 53.1903 74.7042 52.9089 C 74.3214 54.3905 72.854 56.1937 71.3752 56.1937 C 69.5847 56.1937 68.2624 55.023 68.2624 53.0774 C 68.2624 52.5068 68.1927 51.2123 69.179 49.9844 C 65.275 48.4687 63.9243 48.0311 63.9243 48.0311 C 63.7051 49.3023 63.3436 52.3939 64.7597 55.4993 C 65.3121 56.8084 66.1458 57.954 67.1907 58.8399 C 67.9669 59.4734 68.8427 59.9482 69.7754 60.241 Z" stroke-linecap="round" />
</g>
<g transform="matrix(0.46 0 0 0.46 515.64 500)"  >
<path style="stroke: none; stroke-width: 1; stroke-dasharray: none; stroke-linecap: butt; stroke-dashoffset: 0; stroke-linejoin: miter; stroke-miterlimit: 4; fill: rgb(69,69,69); fill-rule: nonzero; opacity: 1;" vector-effect="non-scaling-stroke"  transform=" translate(-139.23, -50.48)" d="M 120.588 44.7097 C 119.591 45.1149 115.551 46.7341 112.405 47.9868 C 109.933 48.9704 107.734 49.8427 105.848 50.5865 C 107.687 53.6633 109.169 56.9754 110.26 60.4473 L 110.26 60.4473 C 111.064 63.591 111.337 66.8668 111.067 70.1163 C 111.067 70.1163 110.847 73.8806 109.029 78.4058 C 108.864 78.8171 108.708 79.227 108.564 79.643 L 108.564 79.6538 C 105.575 88.1103 107.011 95.6064 110.391 98.5619 C 115.405 102.945 122.643 96.9643 124.909 92.2117 C 124.909 92.2117 116.503 97.9463 114.803 87.9928 C 113.104 78.0392 116.262 68.9208 134.357 60.073 C 135.021 60.3912 135.716 60.6262 136.429 60.7736 C 137.166 60.9283 141.164 61.6459 144.257 58.7306 C 145.999 57.0913 146.614 55.0932 146.894 54.142 C 147.46 52.2014 147.536 50.131 147.113 48.1476 C 147.113 48.1476 145.764 48.5869 141.857 50.1009 C 142.075 50.3712 142.259 50.6712 142.405 50.9933 C 142.706 51.6772 142.833 52.4357 142.775 53.1909 C 142.741 53.6332 142.686 54.3632 142.233 55.0359 C 141.593 55.9871 140.485 56.3072 139.663 56.3072 C 138.175 56.3072 136.715 54.5055 136.334 53.0223 C 133.887 54.0622 131.509 55.2843 129.217 56.6799 C 129.217 56.6799 125.401 58.9997 120.677 62.9543 C 120.071 63.4615 119.515 63.958 119.515 63.958 C 119.129 64.3013 118.753 64.6493 118.386 64.9972 C 118.313 62.8321 118.121 60.5586 117.869 58.5791 C 120.303 56.9815 124.189 54.5488 129.181 51.9552 C 129.751 51.6614 130.199 51.4325 130.636 51.216 C 131.661 50.7103 132.552 50.2881 133.295 49.9401 C 134.197 49.5194 134.869 49.2179 135.08 49.122 C 136.473 48.4693 140.555 46.5269 140.555 46.5269 C 150.575 41.8331 159.025 36.6027 159.025 36.6027 C 163.783 33.6643 165.618 31.3135 167.831 28.955 C 170.198 26.029 171.134 23.4555 171.501 22.3822 C 172.593 19.1886 172.575 17.2137 172.613 16.442 C 172.603 15.4058 172.713 12.54 171.433 9.78409 C 169.08 4.71452 164.317 2.90662 162.155 2.08695 C 155.303 -0.512787 149.112 1.72197 146.926 2.64525 C 154.88 2.20449 161.372 6.54254 162.77 12.2709 C 164.123 17.8199 160.803 22.3992 158.84 24.3494 C 155.838 27.2585 154.264 28.5251 147.983 32.1579 C 137.973 37.9482 129.559 41.0861 120.588 44.7097 Z" stroke-linecap="round" />
</g>
</svg>